<svg width="327" height="138" viewBox="0 0 327 138" fill="none" xmlns="http://www.w3.org/2000/svg">
<circle cx="163" cy="65" r="63.9516" stroke="#F0E6D3" stroke-width="2.09677"/>
<path fill-rule="evenodd" clip-rule="evenodd" d="M162.363 73.122C169.524 72.8565 176.788 73.0074 183.918 73.7519C185.571 73.9742 187.783 73.8603 189.354 74.4335C190.806 74.9629 192.369 76.0068 193.787 76.704C195.351 77.4728 198.037 77.8097 199.384 78.7636C201.875 80.5305 204.069 82.8692 206.591 84.6444C211.593 88.2008 216.723 91.5702 221.938 94.8241C224.066 96.1518 229.504 98.0002 232.08 98.7362C232.963 98.9885 234.989 98.6556 235.903 99.1864C239.308 101.163 239.85 103.601 243.678 105.409C250.111 108.447 256.519 109.98 263.108 112.324C267.411 113.855 270.227 116.165 275.057 117.315C279.328 118.333 282.242 118.151 286.465 118.848C287.506 119.02 289.72 120.255 290.865 120.631C293.254 121.415 296.064 121.968 298.551 122.349C301.303 122.77 304.182 123.023 306.953 123.346C308.192 123.49 310.237 123.346 311.381 123.538C313.002 123.811 315.263 125.054 316.858 125.521C320.096 126.47 319.345 128.172 322.372 129.934C322.925 131.239 326.105 135.75 326.141 137.587C318.871 137.418 310.788 137.623 303.456 137.626L255.665 137.628H110.202L33.8584 137.618L11.251 137.557C8.69155 137.543 2.08566 137.339 0 137.584V136.938C1.07081 135.821 1.07094 135.464 5.26562 134.399C8.13577 133.305 10.9711 132.481 13.8711 131.375C16.6126 130.329 19.8831 129.066 22.6289 128.172C24.0292 127.716 27.7417 127.973 29.582 127.304C30.9821 126.794 32.6495 126.156 34.0449 125.709C36.3812 124.961 39.0253 124.475 41.3105 123.557C42.6114 123.033 44.4581 121.433 45.793 121.086C48.1843 120.464 50.3758 120.882 52.9023 120.226C54.733 119.752 55.9609 118.836 57.4902 118.349C59.9419 117.567 62.0487 116.768 64.4482 115.847C65.9464 115.302 67.7138 114.86 69.1562 114.232C75.2764 111.568 81.9239 108.069 87.3066 104.132C90.8421 101.546 88.4708 100.406 94.5215 99.7841C97.5758 99.47 103.005 94.5821 105.415 92.6737C107.9 90.8287 110.012 89.626 112.119 87.1435C112.603 86.5731 114.834 85.5327 115.536 84.8886C119.824 81.5165 124.466 78.6041 129.754 77.0839C133.509 76.0043 138.995 75.5515 142.938 75.1581C144.412 75.0111 146.05 74.3658 147.617 74.2343C150.807 73.9664 153.975 74.3673 157.139 74.0683C158.701 73.9207 160.934 73.1751 162.363 73.122ZM176.943 74.1679C172.884 74.2585 166.207 73.3603 162.356 74.0019C157.02 74.8914 154.397 75.5657 148.797 74.9032C144.639 74.4113 139.655 78.0913 136.107 79.9491C137.195 78.6684 138.51 77.6753 139.791 76.578C136.199 77.5556 135.13 78.5777 131.989 80.2685C133.202 78.9003 134.45 78.1174 135.557 76.9306C126.974 77.0719 119.229 83.1651 112.595 88.0956C111.917 88.5991 111.006 90.0458 110.229 90.6103C107.013 92.9465 104.525 95.8816 102.328 99.2675C104.402 97.748 106.208 95.8695 108.269 94.289C109.074 93.6709 112.298 92.4184 112.581 92.0429C114.932 88.9229 116.493 87.2134 120.319 85.5116C119.071 86.6486 118.007 87.5557 116.957 88.8847C120.103 87.0977 123.348 84.8669 126.188 82.6103C126.792 82.1303 127.378 81.7135 128.038 81.3134C126.329 83.5548 124.059 84.825 122.692 86.5907C119.635 90.5401 115.895 93.3005 112.562 96.7431C115.345 95.8972 116.085 94.5752 118.305 92.9423C120.774 91.1257 122.741 89.2519 124.944 87.1503C125.74 86.3915 128.019 86.3614 128.852 85.4911C130.952 83.605 133.701 80.8733 136.213 79.5888C135.004 81.2161 132.84 83.8335 131.234 85.0175C128.13 87.3065 125.408 89.9519 122.207 92.081C122.788 92.2102 123.461 92.2834 123.889 92.6513C124.019 93.1739 123.996 93.539 123.674 93.9921C122.176 96.0976 120.254 96.7516 118.259 97.953C117.782 98.2402 115.341 100.701 114.79 101.249L115.22 101.644C116.824 100.217 119.672 99.0365 121.512 97.8749C122.494 97.2546 122.993 95.8657 123.93 95.1718C124.649 94.6392 125.904 94.4682 126.705 93.997C128.554 92.9093 130.327 91.3265 131.972 89.9452C133.131 85.2171 134.615 86.2472 138.096 83.3681C139.231 82.4293 140.448 80.8545 141.895 79.6835C141.569 80.2207 139.23 84.5991 139.145 84.6737C136.844 86.6259 136.837 87.8148 135.47 90.1239C134.587 91.6138 131.796 93.9404 130.521 95.4667C133.025 94.1846 132.775 93.5316 135.893 92.6269C137.327 90.2898 137.429 90.0749 139.975 88.9511C141.288 85.2162 141.235 84.5503 144.722 82.6581C144.229 83.9351 144.062 84.5032 143.801 85.8466C146.152 83.5229 146.424 81.8135 146.868 78.6913C148.48 77.5963 149.234 77.6071 151.154 77.2802C148.516 79.5374 148.318 81.1658 146.472 83.8124C144.452 86.7071 143.548 86.9166 142.564 90.496C144.831 89.1456 146.386 87.8681 148.025 85.7616C148.436 81.9562 148.667 82.5378 150.831 79.3593L151.473 79.7069C151.3 80.5957 151.224 81.0911 151.158 81.9921C150.357 82.6045 149.968 82.9335 149.257 83.6444C149.072 84.3334 148.908 84.4811 149.083 85.0849C149.856 85.0976 150.936 83.6517 151.459 83.0614C150.917 84.4373 149.861 85.8837 148.923 87.0097C146.994 89.3251 142.49 91.519 146.906 94.2841C144.953 96.1912 141.708 99.3553 139.441 100.722C136.51 102.488 131.694 103.53 128.786 105.385C128.513 105.753 128.33 105.919 127.963 106.193C127.885 106.539 127.874 106.517 127.979 106.852C129.675 106.219 131.063 104.958 132.575 104.382C136.407 102.922 139.703 102.552 142.85 99.5692C143.517 98.9368 146.426 97.4451 146.922 96.748C149.413 93.246 150.052 91.6285 153.8 89.1972C154.699 87.5487 154.611 86.4174 155.357 84.7558C155.812 83.7457 157.474 82.443 157.907 81.5224C158.706 79.8239 158.842 78.4561 159.712 76.6532C160.317 80.7766 158.151 81.8959 157.956 83.8017C157.953 84.4241 157.869 85.282 158.2 85.7821C160.349 81.4605 162.481 80.5117 161.766 75.5624C162.84 76.0927 163.362 76.3515 164.356 77.0653C164.302 78.5456 164.333 78.8573 164.652 80.3222C164.443 80.9059 163.555 83.1224 163.025 83.287C162.829 82.3042 163.498 80.084 162.95 79.5067C162.561 79.7643 162.374 80.0699 162.163 80.4862C161.248 82.2936 160.486 84.2187 159.66 86.0722C159.117 87.2904 157.83 89.3158 157.502 90.5028C157.993 91.8571 157.782 91.838 156.949 93.0507C157.529 93.9353 157.766 94.3383 158.205 95.2948C157.795 96.4275 156.446 97.9124 156.448 98.7235C157.728 98.0437 158.602 96.415 158.711 95.0292C158.895 92.6861 159.548 92.4372 161.546 91.6542C162.93 86.2973 165.119 86.0698 166.784 82.7606C166.463 79.2316 166.49 78.8259 164.758 75.8095C167.959 77.3565 167.609 77.8728 169.273 80.286L169.417 80.2704C169.494 79.7764 169.559 79.2808 169.615 78.7841L169.802 78.7528C171.079 80.3578 169.244 83.7936 168.668 85.6259C169.621 84.0144 170.703 82.6024 171.85 81.1269C172.389 80.4307 172.435 79.07 173.155 78.9774C173.593 79.3203 173.765 79.962 173.983 80.5087C173.375 81.6961 172.914 83.3298 172.33 84.2685C170.51 87.1945 168.564 87.5153 168.366 91.2743C168.733 90.4471 169.134 89.1523 170.074 88.9716L170.318 89.2148C170.752 90.6644 169.865 93.1699 169.774 94.7685C169.696 96.1353 168.745 97.9257 168.247 99.2841C170.584 96.8477 170.965 93.9414 173.522 91.9413C173.677 91.8197 173.696 91.551 173.658 91.3329L173.614 91.1308C173.409 89.9977 174.849 89.5729 175.372 88.7216C175.71 88.214 175.833 87.5568 176.241 87.0751C176.919 87.3612 176.638 88.0897 177.336 88.4013C178.168 87.3348 177.189 86.7827 177.301 85.7265C177.433 84.4731 177.785 82.9442 178.088 81.7274C176.067 80.1284 174.011 78.8808 171.792 77.5849C170.663 76.9257 168.703 75.9141 167.94 74.9452C168.677 74.7779 173.615 77.0007 174.563 77.4814C174.734 76.6969 174.728 76.1918 175.334 75.7499C177.915 75.5101 180.624 80.1334 183.016 81.3251C185.303 82.4664 183.024 87.8331 183.37 89.6659C183.549 90.6135 184.214 94.4333 184.897 94.9823L185.044 94.7265C185.13 93.8529 184.816 93.0188 184.565 92.1737C184.996 91.379 185.25 90.9763 185.418 90.0898C185.643 88.886 186.231 86.1271 187.624 85.8524C188.73 86.5603 188.904 86.3331 189.431 86.6103C190.799 87.3295 191.939 90.065 192.343 91.4569C192.739 91.7028 193.4 91.952 193.692 92.1815C195.055 93.2521 196.146 94.9862 196.96 96.4843C200.381 96.0462 203.106 99.5295 206.964 101.123C205.634 99.8239 203.964 97.952 202.434 96.9696C200.856 95.9563 198.593 95.6268 197.158 94.2841C195.356 92.5979 194.394 90.3147 192.937 88.3593C189.763 84.4081 186.166 80.7646 182.324 77.4638C181.277 76.5634 180.07 76.0994 178.991 75.0321C179.476 75.1589 179.975 75.2836 180.439 75.4735C181.233 75.798 182.951 77.1016 183.721 77.0409C183.816 76.717 183.866 76.5659 184 76.245C184.12 76.2003 184.216 76.155 184.347 76.1649C187.443 76.3984 189.209 78.5512 191.161 80.3769C194.67 83.1971 195.893 84.1199 198.008 87.9706C198.655 89.1453 204.787 92.78 206.262 93.2685C204.176 91.1406 202.674 91.3992 201.319 88.2235C199.374 87.3378 199.292 87.4047 199.03 85.2929C196.601 83.8919 193.951 81.6096 191.426 79.9569C190.588 79.2314 190.395 78.8825 189.883 77.9296C189.774 77.3405 189.911 77.2782 190.146 76.6591C189.555 76.1618 188.462 75.1551 187.74 75.0087C185.44 74.5409 182.971 74.4026 180.629 74.1864C179.433 74.1698 178.133 74.1413 176.943 74.1679Z" fill="#F0E6D3"/>
</svg>
