<svg width="393" height="140" viewBox="0 0 393 140" fill="none" xmlns="http://www.w3.org/2000/svg">
<circle cx="195" cy="65" r="63.9516" stroke="#F0E6D3" stroke-width="2.09677"/>
<path d="M194.363 73.1215C201.524 72.856 208.788 73.0079 215.918 73.7524C217.571 73.9747 219.783 73.8599 221.354 74.433C222.806 74.9624 224.369 76.0063 225.787 76.7036C227.351 77.4724 230.037 77.8092 231.384 78.7631C233.875 80.5301 236.069 82.8697 238.591 84.645C243.593 88.2013 248.723 91.5708 253.938 94.8246C256.066 96.1523 261.504 98.0007 264.08 98.7368C264.963 98.989 266.989 98.656 267.903 99.187C271.308 101.164 271.85 103.601 275.678 105.41C282.111 108.448 288.519 109.98 295.108 112.324C299.411 113.854 302.228 116.165 307.057 117.315C311.328 118.332 314.242 118.151 318.465 118.848C319.506 119.02 321.72 120.254 322.865 120.63C325.254 121.414 328.064 121.967 330.551 122.348C333.303 122.77 336.182 123.024 338.953 123.346C340.192 123.49 342.237 123.345 343.381 123.538C345.002 123.811 347.263 125.054 348.858 125.521C352.096 126.469 351.345 128.173 354.372 129.935C354.926 131.24 358.105 135.75 358.141 137.586C350.871 137.417 342.788 137.624 335.456 137.626L287.665 137.628H142.202L65.8584 137.618L43.251 137.557C40.6916 137.543 34.0857 137.338 32 137.583V136.938C33.0708 135.821 33.071 135.464 37.2656 134.4C40.1358 133.305 42.9711 132.481 45.8711 131.375C48.6127 130.33 51.883 129.066 54.6289 128.172C56.0291 127.716 59.7417 127.974 61.582 127.304C62.9822 126.795 64.6494 126.155 66.0449 125.708C68.3811 124.961 71.0254 124.476 73.3105 123.557C74.6114 123.034 76.458 121.432 77.793 121.085C80.1843 120.463 82.3759 120.881 84.9023 120.226C86.733 119.751 87.961 118.836 89.4902 118.349C91.9419 117.568 94.0486 116.768 96.4482 115.847C97.9464 115.303 99.7137 114.861 101.156 114.233C107.276 111.569 113.924 108.069 119.307 104.132C122.842 101.546 120.471 100.407 126.521 99.7846C129.576 99.4706 135.005 94.5817 137.415 92.6733C139.9 90.8282 142.012 89.6256 144.119 87.143C144.603 86.5727 146.833 85.5332 147.536 84.8891C151.824 81.517 156.466 78.6037 161.754 77.0834C165.509 76.0038 170.996 75.551 174.938 75.1577C176.412 75.0107 178.05 74.3654 179.617 74.2338C182.807 73.9659 185.975 74.3679 189.139 74.0688C190.701 73.9212 192.934 73.1746 194.363 73.1215ZM208.943 74.1674C204.884 74.2581 198.207 73.3608 194.356 74.0024C189.021 74.8919 186.397 75.5662 180.797 74.9037C176.639 74.4118 171.655 78.0918 168.107 79.9496C169.196 78.6687 170.51 77.675 171.791 76.5776C168.199 77.5552 167.13 78.5782 163.989 80.269C165.202 78.9008 166.45 78.117 167.557 76.9301C158.974 77.0714 151.229 83.1647 144.595 88.0952C143.917 88.5987 143.007 90.0464 142.229 90.6108C139.013 92.9471 136.525 95.882 134.328 99.268C136.402 97.7485 138.208 95.8691 140.269 94.2885C141.075 93.6704 144.298 92.4177 144.581 92.0424C146.932 88.9225 148.493 87.2139 152.319 85.5121C151.071 86.6491 150.007 87.5552 148.957 88.8842C152.103 87.0973 155.348 84.8674 158.188 82.6108C158.792 82.1309 159.378 81.7141 160.038 81.3139C158.329 83.5553 156.059 84.8254 154.692 86.5912C151.635 90.5406 147.895 93.301 144.562 96.7436C147.345 95.8977 148.085 94.5747 150.305 92.9418C152.774 91.1253 154.741 89.2514 156.944 87.1498C157.74 86.3912 160.019 86.361 160.852 85.4907C162.952 83.6045 165.701 80.8729 168.213 79.5883C167.004 81.2156 164.84 83.834 163.234 85.018C160.13 87.3071 157.408 89.9524 154.207 92.0815C154.788 92.2108 155.461 92.2839 155.889 92.6518C156.019 93.1743 155.996 93.5387 155.674 93.9916C154.176 96.0972 152.254 96.7512 150.259 97.9526C149.782 98.2394 147.342 100.701 146.79 101.248L147.22 101.645C148.823 100.217 151.672 99.0361 153.512 97.8745C154.494 97.254 154.993 95.8652 155.93 95.1713C156.649 94.6389 157.904 94.4687 158.705 93.9975C160.554 92.9098 162.327 91.3262 163.972 89.9448C165.131 85.2169 166.615 86.2468 170.096 83.3676C171.231 82.4289 172.448 80.854 173.895 79.683C173.57 80.2197 171.228 84.6031 171.145 84.6743C168.845 86.6263 168.837 87.8144 167.47 90.1235C166.587 91.6134 163.796 93.9408 162.521 95.4672C165.025 94.185 164.775 93.5322 167.893 92.6274C169.327 90.2901 169.429 90.0745 171.975 88.9506C173.288 85.2158 173.234 84.5499 176.722 82.6577C176.229 83.9347 176.062 84.5029 175.801 85.8461C178.152 83.5227 178.424 81.8137 178.868 78.6918C180.48 77.5967 181.234 77.6067 183.154 77.2797C180.516 79.5369 180.318 81.1654 178.472 83.812C176.452 86.7068 175.548 86.9163 174.564 90.4955C176.831 89.1451 178.386 87.8678 180.025 85.7612C180.436 81.9563 180.668 82.5378 182.831 79.3598L183.473 79.7065C183.3 80.5954 183.224 81.0906 183.158 81.9916C182.357 82.6041 181.967 82.9331 181.257 83.644C181.072 84.3332 180.908 84.4806 181.083 85.0844C181.856 85.0972 182.936 83.6523 183.459 83.062C182.917 84.4377 181.861 85.8833 180.923 87.0092C178.994 89.3248 174.49 91.5194 178.906 94.2846C176.953 96.1916 173.708 99.3548 171.441 100.721C168.51 102.488 163.694 103.53 160.786 105.384C160.513 105.752 160.33 105.919 159.963 106.193C159.885 106.54 159.874 106.517 159.979 106.853C161.675 106.219 163.063 104.958 164.575 104.382C168.407 102.923 171.703 102.552 174.85 99.5688C175.517 98.9364 178.425 97.4457 178.922 96.7485C181.413 93.2463 182.052 91.6282 185.8 89.1967C186.699 87.5482 186.611 86.417 187.357 84.7553C187.812 83.7451 189.475 82.4425 189.907 81.5219C190.706 79.8235 190.842 78.4565 191.712 76.6537C192.317 80.7771 190.15 81.8964 189.956 83.8022C189.953 84.4247 189.869 85.2827 190.2 85.7827C192.349 81.4608 194.481 80.5122 193.766 75.5629C194.84 76.0932 195.362 76.3519 196.356 77.0659C196.302 78.5457 196.333 78.857 196.652 80.3217C196.443 80.9051 195.555 83.123 195.025 83.2875C194.829 82.3049 195.498 80.0847 194.95 79.5073C194.561 79.7648 194.374 80.0704 194.163 80.4868C193.248 82.2942 192.486 84.2193 191.66 86.0727C191.117 87.2909 189.83 89.3154 189.502 90.5024C189.993 91.857 189.782 91.8377 188.949 93.0502C189.529 93.9351 189.766 94.3385 190.205 95.2954C189.795 96.4279 188.446 97.9119 188.448 98.7231C189.728 98.0432 190.602 96.4155 190.711 95.0297C190.895 92.6862 191.548 92.4368 193.546 91.6537C194.93 86.2975 197.119 86.0699 198.784 82.7612C198.463 79.2319 198.49 78.8257 196.758 75.809C199.96 77.3561 199.609 77.8724 201.273 80.2856L201.417 80.2709C201.494 79.7768 201.559 79.2805 201.615 78.7836L201.802 78.7534C203.078 80.3584 201.244 83.7932 200.668 85.6254C201.621 84.0141 202.704 82.6029 203.85 81.1274C204.389 80.4313 204.435 79.0706 205.155 78.978C205.593 79.3209 205.765 79.9625 205.983 80.5092C205.375 81.6967 204.914 83.3305 204.33 84.269C202.51 87.1949 200.564 87.5152 200.366 91.2739C200.733 90.4466 201.134 89.1518 202.074 88.9711L202.318 89.2143C202.753 90.664 201.865 93.1703 201.774 94.769C201.696 96.1357 200.745 97.9253 200.247 99.2836C202.584 96.8473 202.965 93.9409 205.522 91.9409C205.7 91.8017 205.699 91.4707 205.639 91.2426C205.315 90.0246 206.832 89.6001 207.372 88.7211C207.71 88.2136 207.833 87.5573 208.241 87.0756C208.919 87.3617 208.639 88.0893 209.336 88.4008C210.167 87.3344 209.189 86.7822 209.301 85.726C209.433 84.4728 209.785 82.9445 210.088 81.728C208.067 80.129 206.011 78.8813 203.792 77.5854C202.664 76.9263 200.704 75.9146 199.94 74.9457C200.676 74.7782 205.615 77.0012 206.563 77.4819C206.734 76.6971 206.727 76.1915 207.334 75.7495C209.915 75.5096 212.624 80.133 215.016 81.3246C217.303 82.4658 215.024 87.8337 215.37 89.6664C215.549 90.6146 216.214 94.4339 216.897 94.9829L217.044 94.726C217.13 93.8526 216.816 93.0192 216.565 92.1743C216.996 91.3794 217.25 90.9769 217.418 90.0903C217.643 88.8868 218.23 86.1276 219.624 85.853C220.73 86.5605 220.904 86.3328 221.431 86.6098C222.799 87.329 223.939 90.0645 224.343 91.4565C224.739 91.7025 225.4 91.9524 225.692 92.1821C227.056 93.2527 228.146 94.9867 228.96 96.4848C232.381 96.0468 235.106 99.529 238.964 101.122C237.634 99.8234 235.964 97.9515 234.434 96.9692C232.857 95.9559 230.593 95.6272 229.158 94.2846C227.356 92.5983 226.394 90.3143 224.937 88.3588C221.763 84.4077 218.166 80.7641 214.324 77.4633C213.277 76.5631 212.07 76.0997 210.991 75.0327C211.476 75.1594 211.975 75.2832 212.439 75.4731C213.233 75.7974 214.951 77.1012 215.721 77.0405C215.816 76.7167 215.866 76.5662 216 76.2455C216.12 76.2008 216.216 76.1546 216.347 76.1645C219.443 76.3979 221.209 78.5507 223.161 80.3764C226.67 83.1968 227.893 84.1194 230.008 87.9702C230.654 89.1445 236.787 92.7807 238.262 93.269C236.175 91.1408 234.675 91.399 233.319 88.2231C231.374 87.3374 231.292 87.4043 231.03 85.2924C228.601 83.8915 225.951 81.6091 223.426 79.9565C222.588 79.2312 222.395 78.8826 221.883 77.9301C221.774 77.3411 221.911 77.2786 222.146 76.6596C221.555 76.1624 220.462 75.1547 219.74 75.0082C217.44 74.5405 214.971 74.4031 212.629 74.187C211.433 74.1703 210.133 74.1409 208.943 74.1674Z" fill="#F0E6D3"/>
<rect y="137" width="393" height="3" rx="1.5" fill="#F0E6D3"/>
</svg>
